Coordinates
version=1
nRows=12
nColumns=32
inDegrees=yes

Units are S.I. units (second, meters, Newtons, ...)
If the header above contains a line with 'inDegrees', this indicates whether rotational values are in degrees (yes) or radians (no).

endheader
time	pelvis_tilt	pelvis_list	pelvis_rotation	pelvis_tx	pelvis_ty	pelvis_tz	hip_flexion_r	hip_adduction_r	hip_rotation_r	knee_angle_r	knee_adduction_r	med_cond_adduction_r	lat_cond_adduction_r	patella_r_constrained_knee_angle	ankle_angle_r	subtalar_angle_r	mtp_angle_r	hip_flexion_l	hip_adduction_l	hip_rotation_l	knee_angle_l	knee_adduction_l	med_cond_adduction_l	lat_cond_adduction_l	patella_l_constrained_knee_angle	ankle_angle_l	subtalar_angle_l	mtp_angle_l	lumbar_extension	lumbar_bending	lumbar_rotation
      0.00500000	     -2.61199561	      5.10418818	     -4.14210469	      0.24041846	      0.90309452	     -1.19585975	      2.93716831	    -28.24516619	    -31.61520263	     -5.80731471	      4.43790197	     -0.00000000	     -0.00000000	     -0.10135676	     -9.22681049	     10.41627060	     -0.00000000	      1.19185043	    -14.30075559	    -38.80461262	     -4.64625936	      0.90284815	      0.00000000	      0.00000000	     -0.08109252	     -8.51898809	     15.18166806	      0.00000000	    -13.38380432	     -4.56341929	     -2.96809764
      0.01000000	     -2.64900025	      5.25519822	     -4.13567889	      0.24040347	      0.90302020	     -1.19598695	      2.99782449	    -28.45848688	    -31.59827281	     -5.86211121	      4.49050029	     -0.00000000	     -0.00000000	     -0.10231314	     -9.16861622	     10.44358008	     -0.00000000	      1.26987938	    -14.06841873	    -38.78144235	     -4.60888448	      0.77958118	      0.00000000	      0.00000000	     -0.08044021	     -8.53685994	     15.20746686	      0.00000000	    -13.33392274	     -4.73944641	     -3.01450172
      0.01500000	     -2.68572156	      5.29046105	     -4.11502451	      0.24046720	      0.90297200	     -1.19606998	      3.01818424	    -28.51955198	    -31.67068637	     -5.86382063	      4.52127612	     -0.00000000	     -0.00000000	     -0.10234298	     -9.21275627	     10.47363588	     -0.00000000	      1.30772218	    -14.02260746	    -38.77749532	     -4.58330405	      0.77859395	      0.00000000	      0.00000000	     -0.07999375	     -8.55154482	     15.22417754	      0.00000000	    -13.27005565	     -4.74671603	     -3.00926755
      0.02000000	     -2.72532380	      5.37576756	     -4.16996491	      0.24051864	      0.90288276	     -1.19602841	      3.10896508	    -28.63969837	    -31.60376988	     -5.91271735	      4.56398057	     -0.00000000	     -0.00000000	     -0.10319639	     -9.18331593	     10.49195977	      0.00000000	      1.30329958	    -13.89542689	    -38.79748935	     -4.49288242	      0.77319005	     -0.00000000	     -0.00000000	     -0.07841559	     -8.59614391	     15.11791074	     -0.00000000	    -13.20490075	     -4.82965760	     -2.94932706
      0.02500000	     -2.72445894	      5.25846580	     -4.15969737	      0.24055969	      0.90294670	     -1.19603181	      3.03676161	    -28.44986406	    -31.62780335	     -5.76477276	      4.52274515	      0.00000000	      0.00000000	     -0.10061427	     -9.27344719	     10.43108608	      0.00000000	      1.30939842	    -14.06925427	    -38.80460120	     -4.57644092	      0.81581028	      0.00000000	      0.00000000	     -0.07987396	     -8.54388643	     15.15110138	     -0.00000000	    -13.20663631	     -4.70258709	     -2.98135577
      0.03000000	     -2.74259614	      5.24577434	     -4.21427628	      0.24060348	      0.90294068	     -1.19593557	      3.09522476	    -28.42635551	    -31.58585392	     -5.78516377	      4.50787339	      0.00000000	      0.00000000	     -0.10097016	     -9.24766474	     10.44228245	      0.00000000	      1.27996522	    -14.09198125	    -38.82062978	     -4.54828615	      0.86558888	     -0.00000000	     -0.00000000	     -0.07938257	     -8.55071478	     15.07357055	      0.00000000	    -13.17684461	     -4.70925320	     -2.94972245
      0.03500000	     -2.77644515	      5.34856434	     -4.22040824	      0.24066076	      0.90285770	     -1.19597108	      3.16962947	    -28.58890740	    -31.62832622	     -5.87863369	      4.54837622	     -0.00000000	     -0.00000000	     -0.10260151	     -9.17810118	     10.55743582	     -0.00000000	      1.31245344	    -13.94163102	    -38.81671339	     -4.49811128	      0.82018693	      0.00000000	      0.00000000	     -0.07850685	     -8.57482824	     15.05159953	      0.00000000	    -13.11033654	     -4.79119531	     -2.89497890
      0.04000000	     -2.78239582	      5.33163777	     -4.17653085	      0.24063626	      0.90291178	     -1.19607762	      3.10835717	    -28.52557720	    -31.61380574	     -5.75264613	      4.51269716	     -0.00000000	     -0.00000000	     -0.10040262	     -9.27289815	     10.44701030	     -0.00000000	      1.39342135	    -13.96828192	    -38.79211550	     -4.60184422	      0.75105539	     -0.00000000	     -0.00000000	     -0.08031733	     -8.51654857	     15.20338225	      0.00000000	    -13.11254897	     -4.80051419	     -3.01627175
      0.04500000	     -2.76794168	      5.00857596	     -4.26101533	      0.24074051	      0.90301381	     -1.19576223	      3.08266389	    -28.05822909	    -31.61593099	     -5.63617167	      4.38311638	      0.00000000	      0.00000000	     -0.09836975	     -9.33542557	     10.51337785	      0.00000000	      1.26174804	    -14.45947029	    -38.83457753	     -4.68424691	      1.02371688	      0.00000000	      0.00000000	     -0.08175553	     -8.44730084	     15.00738836	      0.00000000	    -13.12711060	     -4.32881373	     -2.71114457
      0.05000000	     -2.77016224	      5.11892925	     -4.29841309	      0.24078932	      0.90297636	     -1.19575605	      3.15970172	    -28.22337030	    -31.60513480	     -5.75535775	      4.39960904	      0.00000000	      0.00000000	     -0.10044994	     -9.22940491	     10.62844780	     -0.00000000	      1.25890692	    -14.28167365	    -38.84529119	     -4.61070857	      0.94063276	      0.00000000	      0.00000000	     -0.08047205	     -8.54357973	     14.95833533	      0.00000000	    -13.08522946	     -4.51231168	     -2.78388041
      0.05500000	     -2.79797481	      5.24785299	     -4.15821247	      0.24082761	      0.90291313	     -1.19612627	      3.04785127	    -28.39263177	    -31.65080187	     -5.64240963	      4.48492522	      0.00000000	      0.00000000	     -0.09847863	     -9.29269577	     10.45147966	     -0.00000000	      1.43160586	    -14.10111954	    -38.79328445	     -4.71865987	      0.77056181	      0.00000000	      0.00000000	     -0.08235615	     -8.37556925	     15.24960829	     -0.00000000	    -13.03646020	     -4.72628058	     -3.10550592
      0.06000000	     -2.78942074	      5.28961527	     -4.29259619	      0.24090980	      0.90289442	     -1.19583226	      3.22113655	    -28.47622814	    -31.58358943	     -5.86594482	      4.45932872	     -0.00000000	     -0.00000000	     -0.10238005	     -9.20250262	     10.62244408	      0.00000000	      1.29708057	    -14.03759894	    -38.83193198	     -4.56149341	      0.85274735	     -0.00000000	     -0.00000000	     -0.07961308	     -8.52198312	     14.99662043	     -0.00000000	    -12.99852244	     -4.70946448	     -2.80757053
